<svg id="Layer_1" data-name="Layer 1" xmlns="http://www.w3.org/2000/svg" viewBox="0 0 725.69 832.37"><defs><style>.cls-1{fill:#1fc36b;}.cls-2{fill:#f0faf6;}</style></defs><title>1logo</title><path class="cls-1" d="M7560.26,7200.52q0,99.51.09,199c0,7.06-3,11.76-8.72,15.06q-33.36,19.22-66.78,38.32-26.85,15.43-53.64,30.92-34.1,19.63-68.19,39.27-29.06,16.74-58.07,33.51l-74.8,43.18c-8.85,5.11-17.75,10.15-26.57,15.33-4.09,2.4-8,2.25-12-.1-14.43-8.36-28.91-16.62-43.35-24.95q-24.6-14.17-49.18-28.4-37.15-21.44-74.32-42.86-45-25.92-90.14-51.78-44.57-25.61-89.14-51.2c-7.16-4.11-10.78-9.8-10.77-18.45q.26-178.36.16-356.73c0-13.3.12-26.61-.13-39.92-.13-6.56,2.74-11.05,8.15-14.17q43.24-24.84,86.51-49.63,40-23,80-46.11,36.3-20.9,72.63-41.73c16.41-9.46,32.77-19,49.15-28.49,19.26-11.14,38.59-22.17,57.76-33.47,6.05-3.57,11.54-3.5,17.53,0,20.11,11.76,40.33,23.33,60.5,35l103.56,59.78q39.6,22.86,79.2,45.71,48.36,27.81,96.8,55.51c2.21,1.27,4.42,2.56,6.55,4,4.94,3.26,7.34,7.67,7.33,13.82Q7560.17,7100.72,7560.26,7200.52Zm-454.81-179a20.55,20.55,0,0,0,21.84-20.78c-.1-11.74-9.21-22.13-21.71-22.26-11.62-.12-21.43,10.16-21.61,22A20.38,20.38,0,0,0,7105.45,7021.49Zm222.12,320.66c0,12.56,8.93,21.54,21.44,21.55,11.69,0,21.7-9.73,21.72-21.14,0-11.57-10.31-22.19-21.75-22C7336.17,7320.82,7327.29,7331,7327.57,7342.15Zm0-146.31a21.4,21.4,0,0,0,21.28,21.69c11.58,0,21.89-10.26,21.88-21.78s-10.12-21.4-21.85-21.36C7336.66,7174.44,7327.55,7183.6,7327.57,7195.84Zm-151.75-48.79c.56-11.53-9.75-21.38-21.48-21.54a21.62,21.62,0,0,0-21.69,21.41,21.85,21.85,0,0,0,21.7,21.73C7165.78,7168.7,7176.51,7158.06,7175.82,7147.05Zm0,48.77c.59-10.73-9.27-21.43-21.57-21.43a21.5,21.5,0,0,0-21.6,21.45c0,11.86,9.73,21.77,21.45,21.67C7167.47,7217.4,7176.45,7205.74,7175.82,7195.82Zm-146-.08a21.61,21.61,0,0,0-43.21.13c0,11.55,10.07,21.64,21.59,21.67A21.78,21.78,0,0,0,7029.8,7195.74Zm0-48.66c0-12-9.44-21.78-21.41-21.53s-21.52,8.89-21.77,21.31c-.24,11.72,10,21.79,21.7,21.77A21.6,21.6,0,0,0,7029.8,7147.08Zm297.78-.05c-.36,11.86,9.56,21.72,21.56,21.62,11.42-.1,21.6-10.3,21.59-21.77s-10.27-21.61-21.87-21.37C7336.11,7125.78,7327.32,7135.25,7327.58,7147Zm-151.76,244.15c.62-10.68-9.72-21.84-21.73-21.75a21.93,21.93,0,0,0-21.43,21.76,21.46,21.46,0,0,0,21.62,21.39C7167.14,7412.4,7176.31,7402,7175.82,7391.18Zm-167.47-27.48a21.11,21.11,0,0,0,21.45-21.42,21.85,21.85,0,0,0-21.46-21.73c-11.29-.13-21.72,10.21-21.79,21.59A21.63,21.63,0,0,0,7008.35,7363.7Zm167.46-119.16c.76-9.44-8.2-21.54-22.17-21.41-11.21.1-21,9.94-21,21.52a21.52,21.52,0,0,0,21.52,21.52C7165.75,7266.29,7176.49,7256.08,7175.81,7244.54Zm0,97.71c.66-10.63-9.41-21.83-21.8-21.59-12.08.23-21.11,9.27-21.3,21.78-.19,11.89,9.59,21.15,21.67,21.3C7166.07,7363.88,7176.52,7353.28,7175.81,7342.25Zm-146-97.56a21.53,21.53,0,0,0-21.74-21.56c-11.36-.1-21.47,10-21.49,21.4a21.73,21.73,0,0,0,21.72,21.62A21.4,21.4,0,0,0,7029.8,7244.69Zm318.94-125c11.13.46,21.74-9.53,22-21.23s-9.62-21.52-21.43-21.63c-12.09-.12-21.33,8.86-21.77,20.42C7327,7109.54,7336.69,7120.06,7348.74,7119.72Zm-167.31,76c-.36,11.78,9.76,21.71,21.56,21.8,11.51.09,22.13-10.41,21.64-21.92-.54-12.39-9.43-20.91-21.61-21.15A21.13,21.13,0,0,0,7181.43,7195.72Zm-27.17,119.05c11.79.49,22.11-10.23,21.64-21.82a22,22,0,0,0-21.78-21,21.47,21.47,0,0,0-21.42,21.87C7133,7305.6,7142,7315,7154.26,7314.77Zm-146.11,0A20.94,20.94,0,0,0,7029.8,7294a21.52,21.52,0,0,0-21.57-22c-11.55-.08-21.66,9.9-21.65,21.5A21.3,21.3,0,0,0,7008.15,7314.77Zm167.67-265.48c.5-11.44-9.77-21.11-21.43-21.13-12.67,0-21.59,9.38-21.67,21.17s10.23,22.09,22,21.86C7166.25,7071,7176.61,7059.36,7175.82,7049.29Zm172.9,265.49c12.16,0,22.05-9.63,22-21.38,0-11.48-10.46-21.61-22.16-21.47-12.66.16-21.06,10.71-21.09,21.62C7327.45,7305.47,7337.1,7315.09,7348.72,7314.78Zm-21.15-265.7c0,12.27,9.26,21.74,21,22.08,10.48.31,22-9.77,22.17-21.66s-9.75-21.28-22-21.26S7327.59,7036.93,7327.57,7049.08Zm-146.14,98c-.58,11.22,10.18,21.67,21.2,21.62,11.83-.06,22-9.9,22.08-21.59.08-11.44-10.08-21.64-21.76-21.57C7190.68,7125.57,7181.05,7135.72,7181.43,7147ZM7056.86,7363.7a21.12,21.12,0,0,0,21.47-20.81,21.43,21.43,0,0,0-21.09-22.24,21.64,21.64,0,0,0-21.84,21.6A21.26,21.26,0,0,0,7056.86,7363.7Zm124.57-21.42a21.15,21.15,0,0,0,21.77,21.41c11.28-.08,21.48-8.8,21.35-21.42s-9.71-21.65-21.9-21.57A21.37,21.37,0,0,0,7181.43,7342.28Zm0-97.56a21.22,21.22,0,0,0,21.76,21.42c11.61-.1,21.47-9,21.36-21.65a21.3,21.3,0,0,0-21.74-21.26C7190.74,7223.54,7181.38,7232.69,7181.43,7244.72Zm0,146.59a21,21,0,0,0,21.88,21.2c12.44-.49,21.22-9.07,21.21-21.45a21.59,21.59,0,0,0-22.13-21.6C7191,7369.57,7181.26,7379.81,7181.43,7391.31Zm-173.26-271.6a21.36,21.36,0,0,0,21.63-21.37,21.11,21.11,0,0,0-21.44-21.48c-11.92,0-21.84,9.68-21.81,21.28A22,22,0,0,0,7008.17,7119.71Zm194.76,0a21.33,21.33,0,0,0,21.61-21.5c-.1-12.79-9.55-21.25-21.63-21.33a21.26,21.26,0,0,0-21.62,21.37A21.72,21.72,0,0,0,7202.93,7119.72Zm145.86,103.57c-11.66-.51-21.1,9.66-21.29,21a21.39,21.39,0,0,0,21.33,21.9c11.61,0,21.9-10,21.89-21.4C7370.72,7233.08,7360.38,7222.77,7348.79,7223.29Zm-340.48-195.05c-12.31.07-21.85,9.35-21.77,21.17.07,11.58,11.05,22.19,22.25,21.76,11.35-.43,21.09-10.39,21-22.24S7020.35,7028.17,7008.31,7028.24Zm410.62,118.91c.65-12.09-9.75-21.54-21.59-21.64a21.32,21.32,0,0,0-21.27,21.45,21.76,21.76,0,0,0,21.12,21.71C7408.4,7168.92,7419.65,7158.84,7418.93,7147.15Zm-292,244.39c.3-11.57-9.11-21.75-20.41-22.09-11.74-.35-22,9.21-22.55,20.66a21.37,21.37,0,0,0,20.83,22.44C7117.18,7413.05,7126.66,7403.85,7127,7391.54Zm-91.56-195.72a21.79,21.79,0,0,0,21.71,21.71c11.64,0,21-9.64,21.18-21.58.22-12.21-9.48-21.42-21.34-21.53A21.19,21.19,0,0,0,7035.42,7195.82Zm383.51,146.32c.65-10.76-8.85-21.54-21.54-21.45-12.25.09-21.21,9.35-21.3,21.73-.09,12,9.4,21.17,21.59,21.31C7408.53,7363.86,7419.78,7354.23,7418.93,7342.14Zm-383.52-97.51a21.38,21.38,0,0,0,21.45,21.52,21,21,0,0,0,21.41-21.14c0-12.37-9.05-21.47-21-21.79S7035.07,7233.05,7035.41,7244.63ZM7154,7119.71c11.35.11,21.4-9.62,21.87-20.43a21.73,21.73,0,0,0-21.41-22.47c-12.4,0-21.43,9.1-21.78,21.18C7132.37,7109.84,7142.18,7119.61,7154,7119.71Zm49-91.47c-12.51,0-21.59,8.93-21.59,21.13a21.85,21.85,0,0,0,22,21.74c10.45,0,21.23-9.4,21.17-21.86C7224.5,7036.43,7214.36,7028.06,7203,7028.24ZM7418.92,7196c.88-11.82-9.77-21.51-21.22-21.59a21.17,21.17,0,0,0-21.63,21.31c-.08,11.67,9.66,21.73,21,21.82C7409.08,7217.63,7419.7,7207,7418.92,7196Zm-216,118.77a21.13,21.13,0,0,0,21.68-21.29,21.59,21.59,0,0,0-43.17,0C7181.39,7305.56,7190.72,7314.81,7202.92,7314.78Zm-76,27.61c.74-11.19-9.2-21.74-21.24-21.76a21.93,21.93,0,0,0-21.65,21.6c.08,12,9.48,21.23,21.49,21.53S7127.66,7353.51,7126.9,7342.39Zm292,48.81c.64-11.56-9.89-21.76-21.25-21.76a21.83,21.83,0,0,0-21.6,21.57,21.23,21.23,0,0,0,21.38,21.57C7409.63,7412.47,7419.43,7402.81,7418.92,7391.2Zm-383.5-.05c-.44,11.36,9.43,21.25,21.29,21.43a21.28,21.28,0,0,0,21.63-20.7,21.81,21.81,0,0,0-21.48-22.44C7045.26,7369.46,7035.48,7379.35,7035.42,7391.15Zm0-341.85a21.89,21.89,0,0,0,21.62,21.79c11.7,0,21.24-9.8,21.23-21.77,0-12.43-8.92-21.18-21.47-21.08C7044.59,7028.34,7035.4,7037.4,7035.42,7049.3Zm42.85,97.62c.21-11.79-9-21.13-21.21-21.39a21.37,21.37,0,0,0-21.64,21.36,21.79,21.79,0,0,0,21.64,21.74C7068.9,7168.62,7078.27,7159,7078.27,7146.92Zm-42.85-49a21.47,21.47,0,0,0,42.92,1.15,21.16,21.16,0,0,0-21.16-22.24C7045,7076.78,7035.49,7086,7035.42,7098Zm21.38,216.82a21,21,0,0,0,21.52-20.69,21.46,21.46,0,1,0-42.9-.7A21,21,0,0,0,7056.8,7314.78Zm362.13-216.69c.64-11.49-9.82-21.34-21.58-21.25a21.11,21.11,0,0,0-21.27,21.59c.07,11.94,9.67,21.14,21.67,21.35C7409.21,7120,7419.77,7109.18,7418.93,7098.09Zm-313-69.84c-11.71-.31-21.48,8.75-21.94,20-.5,12,9.74,22.31,20.33,22.89,13.28.72,22.28-11.44,22.7-20.46C7127.61,7037.89,7117.77,7028,7105.94,7028.25Zm313,20.92c.77-10.93-9.13-21.13-21.36-21s-21.53,9.16-21.49,21.28a22,22,0,0,0,21.48,21.66C7409.13,7071.39,7419.9,7059.88,7418.93,7049.17Zm0,195.69c1-11.2-10.12-21.75-21.17-21.7a21.51,21.51,0,0,0-.4,43C7409.67,7266.37,7419.8,7255.11,7418.92,7244.86Zm0,48.75c.89-11-9.49-21.7-21.25-21.69a21.67,21.67,0,0,0-21.61,21.7c0,12,9.43,21,21.61,21.21C7409.26,7315,7419.76,7304.54,7418.93,7293.61Zm-70.15-272.13c11.28.88,22.05-9.43,22-20.91s-9.9-21.23-21.84-21.26c-12.25,0-21.07,8.93-21.41,21A20.36,20.36,0,0,0,7348.78,7021.48Zm-340.6,0a20.68,20.68,0,0,0,21.65-21,21.2,21.2,0,0,0-21.67-21.2,21.53,21.53,0,0,0-21.62,21.38C6986.61,7012.61,6995.86,7021.49,7008.18,7021.48Zm292.15,0c12.34,0,21.5-8.88,21.49-20.86a21.18,21.18,0,0,0-21.23-21.3c-12.53,0-22.06,9.21-21.89,21.5C7278.87,7012.72,7288,7021.87,7300.33,7021.48Zm-146.17,0c12,.66,21.78-9.89,21.8-20.66,0-11.67-10-21.71-21.73-21.54-12.07.16-21.75,9.42-21.53,21.35C7132.92,7012.76,7141.67,7021.7,7154.16,7021.48Zm-97.32,0a20.41,20.41,0,0,0,21.51-21.29c-.36-11.78-9.35-20.87-21.38-20.87-12.28,0-21.38,9.14-21.6,21.26A20.71,20.71,0,0,0,7056.84,7021.48Z" transform="translate(-6834.66 -6784.5)"/><path class="cls-2" d="M7105.45,7021.49a20.38,20.38,0,0,1-21.48-21c.18-11.85,10-22.13,21.61-22,12.5.13,21.61,10.52,21.71,22.26A20.55,20.55,0,0,1,7105.45,7021.49Z" transform="translate(-6834.66 -6784.5)"/><path class="cls-2" d="M7327.57,7342.15c-.28-11.19,8.6-21.33,21.41-21.57,11.44-.21,21.78,10.41,21.75,22,0,11.41-10,21.14-21.72,21.14C7336.5,7363.69,7327.56,7354.71,7327.57,7342.15Z" transform="translate(-6834.66 -6784.5)"/><path class="cls-2" d="M7327.57,7195.84c0-12.24,9.09-21.4,21.31-21.45,11.73,0,21.85,9.84,21.85,21.36s-10.3,21.78-21.88,21.78A21.4,21.4,0,0,1,7327.57,7195.84Z" transform="translate(-6834.66 -6784.5)"/><path class="cls-2" d="M7175.82,7147.05c.69,11-10,21.65-21.47,21.6a21.85,21.85,0,0,1-21.7-21.73,21.62,21.62,0,0,1,21.69-21.41C7166.07,7125.67,7176.38,7135.52,7175.82,7147.05Z" transform="translate(-6834.66 -6784.5)"/><path class="cls-2" d="M7175.82,7195.82c.63,9.92-8.35,21.58-21.72,21.69-11.72.1-21.41-9.81-21.45-21.67a21.5,21.5,0,0,1,21.6-21.45C7166.55,7174.39,7176.41,7185.09,7175.82,7195.82Z" transform="translate(-6834.66 -6784.5)"/><path class="cls-2" d="M7029.8,7195.74a21.78,21.78,0,0,1-21.62,21.8c-11.52,0-21.57-10.12-21.59-21.67a21.61,21.61,0,0,1,43.21-.13Z" transform="translate(-6834.66 -6784.5)"/><path class="cls-2" d="M7029.8,7147.08a21.6,21.6,0,0,1-21.48,21.55c-11.74,0-21.94-10.05-21.7-21.77.25-12.42,9.68-21.06,21.77-21.31S7029.81,7135.1,7029.8,7147.08Z" transform="translate(-6834.66 -6784.5)"/><path class="cls-2" d="M7327.58,7147c-.26-11.78,8.53-21.25,21.28-21.52,11.6-.24,21.87,9.95,21.87,21.37s-10.17,21.67-21.59,21.77C7337.14,7168.75,7327.22,7158.89,7327.58,7147Z" transform="translate(-6834.66 -6784.5)"/><path class="cls-2" d="M7175.82,7391.18c.49,10.78-8.68,21.22-21.54,21.4a21.46,21.46,0,0,1-21.62-21.39,21.93,21.93,0,0,1,21.43-21.76C7166.1,7369.34,7176.44,7380.5,7175.82,7391.18Z" transform="translate(-6834.66 -6784.5)"/><path class="cls-2" d="M7008.35,7363.7a21.63,21.63,0,0,1-21.8-21.56c.07-11.38,10.5-21.72,21.79-21.59a21.85,21.85,0,0,1,21.46,21.73A21.11,21.11,0,0,1,7008.35,7363.7Z" transform="translate(-6834.66 -6784.5)"/><path class="cls-2" d="M7175.81,7244.54c.68,11.54-10.06,21.75-21.63,21.63a21.52,21.52,0,0,1-21.52-21.52c0-11.58,9.77-21.42,21-21.52C7167.61,7223,7176.57,7235.1,7175.81,7244.54Z" transform="translate(-6834.66 -6784.5)"/><path class="cls-2" d="M7175.81,7342.25c.71,11-9.74,21.63-21.43,21.49-12.08-.15-21.86-9.41-21.67-21.3.19-12.51,9.22-21.55,21.3-21.78C7166.4,7320.42,7176.47,7331.62,7175.81,7342.25Z" transform="translate(-6834.66 -6784.5)"/><path class="cls-2" d="M7029.8,7244.69a21.4,21.4,0,0,1-21.51,21.46,21.73,21.73,0,0,1-21.72-21.62c0-11.43,10.13-21.5,21.49-21.4A21.53,21.53,0,0,1,7029.8,7244.69Z" transform="translate(-6834.66 -6784.5)"/><path class="cls-2" d="M7348.74,7119.72c-12.05.34-21.71-10.18-21.24-22.44.44-11.56,9.68-20.54,21.77-20.42,11.81.11,21.65,9.94,21.43,21.63S7359.87,7120.18,7348.74,7119.72Z" transform="translate(-6834.66 -6784.5)"/><path class="cls-2" d="M7181.43,7195.72a21.13,21.13,0,0,1,21.59-21.27c12.18.24,21.07,8.76,21.61,21.15.49,11.51-10.13,22-21.64,21.92C7191.19,7217.43,7181.07,7207.5,7181.43,7195.72Z" transform="translate(-6834.66 -6784.5)"/><path class="cls-2" d="M7154.26,7314.77c-12.25.25-21.27-9.17-21.56-21a21.47,21.47,0,0,1,21.42-21.87,22,22,0,0,1,21.78,21C7176.37,7304.54,7166.05,7315.26,7154.26,7314.77Z" transform="translate(-6834.66 -6784.5)"/><path class="cls-2" d="M7008.15,7314.77a21.3,21.3,0,0,1-21.57-21.34c0-11.6,10.1-21.58,21.65-21.5a21.52,21.52,0,0,1,21.57,22A20.94,20.94,0,0,1,7008.15,7314.77Z" transform="translate(-6834.66 -6784.5)"/><path class="cls-2" d="M7175.82,7049.29c.79,10.07-9.57,21.68-21.1,21.9-11.77.23-22.07-10.09-22-21.86s9-21.18,21.67-21.17C7166.05,7028.18,7176.32,7037.85,7175.82,7049.29Z" transform="translate(-6834.66 -6784.5)"/><path class="cls-2" d="M7348.72,7314.78c-11.62.31-21.27-9.31-21.24-21.23,0-10.91,8.43-21.46,21.09-21.62,11.7-.14,22.13,10,22.16,21.47C7370.77,7305.15,7360.88,7314.76,7348.72,7314.78Z" transform="translate(-6834.66 -6784.5)"/><path class="cls-2" d="M7327.57,7049.08c0-12.15,8.79-20.82,21.12-20.84s22.16,9.45,22,21.26-11.69,22-22.17,21.66C7336.83,7070.82,7327.56,7061.35,7327.57,7049.08Z" transform="translate(-6834.66 -6784.5)"/><path class="cls-2" d="M7181.43,7147c-.38-11.32,9.25-21.47,21.52-21.54,11.68-.07,21.84,10.13,21.76,21.57-.09,11.69-10.25,21.53-22.08,21.59C7191.61,7168.71,7180.85,7158.26,7181.43,7147Z" transform="translate(-6834.66 -6784.5)"/><path class="cls-2" d="M7056.86,7363.7a21.26,21.26,0,0,1-21.46-21.45,21.64,21.64,0,0,1,21.84-21.6,21.43,21.43,0,0,1,21.09,22.24A21.12,21.12,0,0,1,7056.86,7363.7Z" transform="translate(-6834.66 -6784.5)"/><path class="cls-2" d="M7181.43,7342.28a21.37,21.37,0,0,1,21.22-21.58c12.19-.08,21.77,8.9,21.9,21.57s-10.07,21.34-21.35,21.42A21.15,21.15,0,0,1,7181.43,7342.28Z" transform="translate(-6834.66 -6784.5)"/><path class="cls-2" d="M7181.43,7244.72c-.05-12,9.31-21.18,21.38-21.49a21.3,21.3,0,0,1,21.74,21.26c.11,12.67-9.75,21.55-21.36,21.65A21.22,21.22,0,0,1,7181.43,7244.72Z" transform="translate(-6834.66 -6784.5)"/><path class="cls-2" d="M7181.43,7391.31c-.17-11.5,9.59-21.74,21-21.85a21.59,21.59,0,0,1,22.13,21.6c0,12.38-8.77,21-21.21,21.45A21,21,0,0,1,7181.43,7391.31Z" transform="translate(-6834.66 -6784.5)"/><path class="cls-2" d="M7008.17,7119.71a22,22,0,0,1-21.62-21.57c0-11.6,9.89-21.29,21.81-21.28a21.11,21.11,0,0,1,21.44,21.48A21.36,21.36,0,0,1,7008.17,7119.71Z" transform="translate(-6834.66 -6784.5)"/><path class="cls-2" d="M7202.93,7119.72a21.72,21.72,0,0,1-21.64-21.46,21.26,21.26,0,0,1,21.62-21.37c12.08.08,21.53,8.54,21.63,21.33A21.33,21.33,0,0,1,7202.93,7119.72Z" transform="translate(-6834.66 -6784.5)"/><path class="cls-2" d="M7348.79,7223.29c11.59-.52,21.93,9.79,21.93,21.48,0,11.39-10.28,21.36-21.89,21.4a21.39,21.39,0,0,1-21.33-21.9C7327.69,7233,7337.13,7222.78,7348.79,7223.29Z" transform="translate(-6834.66 -6784.5)"/><path class="cls-2" d="M7008.31,7028.24c12-.07,21.41,8.95,21.49,20.69s-9.66,21.81-21,22.24c-11.2.43-22.18-10.18-22.25-21.76C6986.46,7037.59,6996,7028.31,7008.31,7028.24Z" transform="translate(-6834.66 -6784.5)"/><path class="cls-2" d="M7418.93,7147.15c.72,11.69-10.53,21.77-21.74,21.52a21.76,21.76,0,0,1-21.12-21.71,21.32,21.32,0,0,1,21.27-21.45C7409.18,7125.61,7419.58,7135.06,7418.93,7147.15Z" transform="translate(-6834.66 -6784.5)"/><path class="cls-2" d="M7127,7391.54c-.32,12.31-9.8,21.51-22.13,21a21.37,21.37,0,0,1-20.83-22.44c.5-11.45,10.81-21,22.55-20.66C7117.87,7369.79,7127.28,7380,7127,7391.54Z" transform="translate(-6834.66 -6784.5)"/><path class="cls-2" d="M7035.42,7195.82a21.19,21.19,0,0,1,21.55-21.4c11.86.11,21.56,9.32,21.34,21.53-.22,11.94-9.54,21.6-21.18,21.58A21.79,21.79,0,0,1,7035.42,7195.82Z" transform="translate(-6834.66 -6784.5)"/><path class="cls-2" d="M7418.93,7342.14c.85,12.09-10.4,21.72-21.25,21.59-12.19-.14-21.68-9.27-21.59-21.31.09-12.38,9.05-21.64,21.3-21.73C7410.08,7320.6,7419.58,7331.38,7418.93,7342.14Z" transform="translate(-6834.66 -6784.5)"/><path class="cls-2" d="M7035.41,7244.63c-.34-11.58,9.92-21.72,21.82-21.41s21.06,9.42,21,21.79a21,21,0,0,1-21.41,21.14A21.38,21.38,0,0,1,7035.41,7244.63Z" transform="translate(-6834.66 -6784.5)"/><path class="cls-2" d="M7154,7119.71c-11.85-.1-21.66-9.87-21.32-21.72.35-12.08,9.38-21.21,21.78-21.18a21.73,21.73,0,0,1,21.41,22.47C7175.43,7110.09,7165.38,7119.82,7154,7119.71Z" transform="translate(-6834.66 -6784.5)"/><path class="cls-2" d="M7203,7028.24c11.34-.18,21.48,8.19,21.55,21,.06,12.46-10.72,21.88-21.17,21.86a21.85,21.85,0,0,1-22-21.74C7181.43,7037.17,7190.51,7028.27,7203,7028.24Z" transform="translate(-6834.66 -6784.5)"/><path class="cls-2" d="M7418.92,7196c.78,10.94-9.84,21.62-21.82,21.54-11.37-.09-21.11-10.15-21-21.82a21.17,21.17,0,0,1,21.63-21.31C7409.15,7174.5,7419.8,7184.19,7418.92,7196Z" transform="translate(-6834.66 -6784.5)"/><path class="cls-2" d="M7202.92,7314.78c-12.2,0-21.53-9.22-21.49-21.31a21.59,21.59,0,0,1,43.17,0A21.13,21.13,0,0,1,7202.92,7314.78Z" transform="translate(-6834.66 -6784.5)"/><path class="cls-2" d="M7126.9,7342.39c.76,11.12-9.43,21.67-21.4,21.37s-21.41-9.56-21.49-21.53a21.93,21.93,0,0,1,21.65-21.6C7117.7,7320.65,7127.64,7331.2,7126.9,7342.39Z" transform="translate(-6834.66 -6784.5)"/><path class="cls-2" d="M7418.92,7391.2c.51,11.61-9.29,21.27-21.47,21.38a21.23,21.23,0,0,1-21.38-21.57,21.83,21.83,0,0,1,21.6-21.57C7409,7369.44,7419.56,7379.64,7418.92,7391.2Z" transform="translate(-6834.66 -6784.5)"/><path class="cls-2" d="M7035.42,7391.15c.06-11.8,9.84-21.69,21.44-21.71a21.81,21.81,0,0,1,21.48,22.44,21.28,21.28,0,0,1-21.63,20.7C7044.85,7412.4,7035,7402.51,7035.42,7391.15Z" transform="translate(-6834.66 -6784.5)"/><path class="cls-2" d="M7035.42,7049.3c0-11.9,9.17-21,21.38-21.06,12.55-.1,21.46,8.65,21.47,21.08,0,12-9.53,21.75-21.23,21.77A21.89,21.89,0,0,1,7035.42,7049.3Z" transform="translate(-6834.66 -6784.5)"/><path class="cls-2" d="M7078.27,7146.92c0,12.11-9.37,21.7-21.21,21.71a21.79,21.79,0,0,1-21.64-21.74,21.37,21.37,0,0,1,21.64-21.36C7069.26,7125.79,7078.48,7135.13,7078.27,7146.92Z" transform="translate(-6834.66 -6784.5)"/><path class="cls-2" d="M7035.42,7098c.07-11.94,9.55-21.18,21.76-21.09a21.16,21.16,0,0,1,21.16,22.24,21.47,21.47,0,0,1-42.92-1.15Z" transform="translate(-6834.66 -6784.5)"/><path class="cls-2" d="M7056.8,7314.78a21,21,0,0,1-21.38-21.39,21.46,21.46,0,1,1,42.9.7A21,21,0,0,1,7056.8,7314.78Z" transform="translate(-6834.66 -6784.5)"/><path class="cls-2" d="M7418.93,7098.09c.84,11.09-9.72,21.88-21.18,21.69-12-.21-21.6-9.41-21.67-21.35a21.11,21.11,0,0,1,21.27-21.59C7409.11,7076.75,7419.57,7086.6,7418.93,7098.09Z" transform="translate(-6834.66 -6784.5)"/><path class="cls-2" d="M7105.94,7028.25c11.83-.25,21.67,9.64,21.09,22.44-.42,9-9.42,21.18-22.7,20.46-10.59-.58-20.83-10.89-20.33-22.89C7084.46,7037,7094.23,7027.94,7105.94,7028.25Z" transform="translate(-6834.66 -6784.5)"/><path class="cls-2" d="M7418.93,7049.17c1,10.71-9.8,22.22-21.37,22a22,22,0,0,1-21.48-21.66c0-12.12,9.21-21.12,21.49-21.28S7419.7,7038.24,7418.93,7049.17Z" transform="translate(-6834.66 -6784.5)"/><path class="cls-2" d="M7418.92,7244.86c.88,10.25-9.25,21.51-21.57,21.32a21.51,21.51,0,0,1,.4-43C7408.8,7223.11,7419.94,7233.66,7418.92,7244.86Z" transform="translate(-6834.66 -6784.5)"/><path class="cls-2" d="M7418.93,7293.61c.83,10.93-9.67,21.38-21.25,21.22-12.18-.17-21.58-9.2-21.61-21.21a21.67,21.67,0,0,1,21.61-21.7C7409.44,7271.91,7419.82,7282.61,7418.93,7293.61Z" transform="translate(-6834.66 -6784.5)"/><path class="cls-2" d="M7348.78,7021.48a20.36,20.36,0,0,1-21.28-21.16c.34-12.08,9.16-21,21.41-21,11.94,0,21.76,9.68,21.84,21.26S7360.06,7022.36,7348.78,7021.48Z" transform="translate(-6834.66 -6784.5)"/><path class="cls-2" d="M7008.18,7021.48c-12.32,0-21.57-8.87-21.64-20.79a21.53,21.53,0,0,1,21.62-21.38,21.2,21.2,0,0,1,21.67,21.2A20.68,20.68,0,0,1,7008.18,7021.48Z" transform="translate(-6834.66 -6784.5)"/><path class="cls-2" d="M7300.33,7021.48c-12.38.39-21.46-8.76-21.63-20.66-.17-12.29,9.36-21.52,21.89-21.5a21.18,21.18,0,0,1,21.23,21.3C7321.83,7012.6,7312.67,7021.49,7300.33,7021.48Z" transform="translate(-6834.66 -6784.5)"/><path class="cls-2" d="M7154.16,7021.48c-12.49.22-21.24-8.72-21.46-20.85-.22-11.93,9.46-21.19,21.53-21.35,11.73-.17,21.75,9.87,21.73,21.54C7175.94,7011.59,7166.17,7022.14,7154.16,7021.48Z" transform="translate(-6834.66 -6784.5)"/><path class="cls-2" d="M7056.84,7021.48a20.71,20.71,0,0,1-21.47-20.9c.22-12.12,9.32-21.27,21.6-21.26,12,0,21,9.09,21.38,20.87A20.41,20.41,0,0,1,7056.84,7021.48Z" transform="translate(-6834.66 -6784.5)"/></svg>